<svg width="312" height="69" viewBox="0 0 312 69" fill="none" xmlns="http://www.w3.org/2000/svg">
  <path fill-rule="evenodd" clip-rule="evenodd"
    d="M4.49979 0V13.321H61.2535L11.8001 30.6349C8.63773 31.8428 6.1146 33.6212 4.2643 35.97C2.414 38.3187 1.16926 40.9024 0.530064 43.6874C-0.10913 46.5059 -0.176413 49.358 0.361855 52.2772C0.900124 55.1964 1.94302 57.8472 3.55782 60.2631C5.13899 62.6454 7.29206 64.6251 9.94976 66.1351C12.6411 67.645 15.8034 68.4167 19.4704 68.4167H110.202L110.219 68.3677C110.833 68.4002 111.45 68.4167 112.072 68.4167C131.012 68.4167 146.353 53.1161 146.353 34.2251C146.353 26.393 143.722 19.1722 139.291 13.4021L193.802 13.4888C196.224 13.4888 198.007 14.1599 199.151 15.502C200.329 16.8442 200.867 18.3206 200.8 19.9312C200.732 21.5418 200.059 23.0181 198.815 24.3603C197.536 25.7025 195.72 26.3735 193.297 26.3735L146.799 26.4831V27.2459L214.122 68.5292V68.3832H227.578L227.309 19.3942C227.309 18.1192 227.578 17.0119 228.117 16.0053C228.655 15.0322 229.395 14.2605 230.337 13.7907C231.279 13.321 232.389 13.1532 233.6 13.2874C234.811 13.4216 236.124 13.992 237.503 14.9651L311.885 68.5845V52.1766L245.846 4.56335C242.65 2.21456 239.151 0.838845 235.451 0.369089C231.75 -0.100668 228.285 0.268427 225.089 1.44282C221.893 2.61721 219.235 4.56335 217.15 7.31478C215.03 10.0662 213.987 13.4887 213.987 17.6159V53.0729L189.025 38.8221L195.148 38.7214C199.353 38.6879 202.818 37.6813 205.61 35.7687C208.403 33.8225 210.455 31.4402 211.767 28.5881C213.079 25.7025 213.651 22.6155 213.516 19.2601C213.382 15.9382 212.507 12.8177 210.858 9.99916C209.21 7.18061 206.855 4.79828 203.76 2.91925C200.665 1.04022 196.796 0.100708 192.154 0.100708H128.873L128.873 0.100662L114.598 0.0891085C113.775 0.0300433 112.944 0 112.106 0C111.286 0 110.474 0.0286906 109.669 0.0851188L4.49979 0ZM81.7057 18.344L17.0482 43.3518C15.6689 43.9223 14.7269 44.8618 14.2223 46.1368C13.7176 47.4119 13.6167 48.7205 13.9531 50.0291C14.2896 51.3377 15.0297 52.5121 16.1062 53.5187C17.1827 54.5254 18.6293 55.0287 20.4124 55.0287L84.9127 55.0975C80.4468 49.324 77.7909 42.0853 77.7909 34.2251C77.7909 28.4945 79.2057 23.0912 81.7057 18.344ZM132.93 34.2251C132.93 22.7497 123.577 13.4216 112.106 13.4216C100.6 13.4216 91.2476 22.7497 91.2813 34.2251C91.2813 45.6671 100.6 54.9951 112.106 54.9951C123.577 54.9951 132.93 45.7006 132.93 34.2251Z"
    fill="white" />
</svg>