<svg
  width="312"
  height="105"
  viewBox="0 0 312 105"
  fill="none"
  xmlns="http://www.w3.org/2000/svg"
>
<path
    d="M288.719 100.857H311.401V11.8846C311.401 11.858 311.401 11.858 311.401 11.8315C311.401 11.672 311.401 11.4859 311.401 11.3264C311.401 11.2201 311.374 11.1403 311.374 11.034C311.374 10.9542 311.374 10.8479 311.348 10.7682C311.348 10.6618 311.321 10.5289 311.294 10.4226C311.294 10.3428 311.268 10.2897 311.268 10.2099C311.241 10.077 311.241 9.97067 311.215 9.83776C311.215 9.78459 311.188 9.73143 311.188 9.65168C311.161 9.51877 311.135 9.41244 311.108 9.27952C311.082 9.22636 311.082 9.17319 311.055 9.09344C311.028 8.98711 311.002 8.8542 310.949 8.74787C310.922 8.6947 310.922 8.61495 310.895 8.56179C310.869 8.45546 310.816 8.34913 310.789 8.24279C310.763 8.16305 310.736 8.10988 310.709 8.03013C310.683 7.9238 310.63 7.84405 310.603 7.73772C310.576 7.65797 310.55 7.57823 310.497 7.49848C310.47 7.41873 310.417 7.33898 310.39 7.25923C310.364 7.17948 310.31 7.07315 310.257 6.9934C310.231 6.91366 310.178 6.86049 310.151 6.78074C310.098 6.67441 310.045 6.59466 309.991 6.48833C309.965 6.43517 309.912 6.35542 309.885 6.30225C309.832 6.19592 309.779 6.08959 309.725 6.00984C309.699 5.95668 309.646 5.90351 309.619 5.85035C309.566 5.74402 309.486 5.63769 309.433 5.55794C309.406 5.50477 309.353 5.45161 309.327 5.39844C309.273 5.29211 309.194 5.21236 309.114 5.10603C309.061 5.05287 309.008 4.97312 308.981 4.91995C308.928 4.8402 308.848 4.76045 308.795 4.68071C308.715 4.60096 308.662 4.52121 308.582 4.44146C308.529 4.3883 308.476 4.33513 308.423 4.25538C308.183 3.98956 307.891 3.72373 307.625 3.4579C307.572 3.40473 307.519 3.35157 307.439 3.2984C307.359 3.21866 307.279 3.16549 307.199 3.08574C307.12 3.03258 307.04 2.95283 306.96 2.89966C306.907 2.8465 306.827 2.79333 306.774 2.76675C306.668 2.687 306.588 2.63384 306.482 2.55409C306.428 2.5275 306.375 2.47434 306.322 2.44776C306.216 2.39459 306.136 2.31484 306.03 2.26168C305.976 2.23509 305.923 2.18193 305.87 2.15535C305.764 2.10218 305.684 2.04901 305.577 1.99585C305.524 1.96927 305.445 1.9161 305.391 1.88952C305.285 1.83635 305.205 1.78319 305.099 1.73002C305.019 1.70344 304.966 1.65027 304.886 1.62369C304.806 1.57053 304.7 1.54394 304.62 1.51736C304.54 1.49078 304.461 1.43761 304.381 1.41103C304.301 1.38445 304.221 1.35786 304.142 1.33128C304.035 1.3047 303.955 1.25153 303.849 1.22495C303.769 1.19837 303.716 1.17178 303.636 1.1452C303.53 1.11862 303.424 1.06545 303.317 1.03887C303.264 1.01229 303.184 1.01229 303.131 0.985705C303.025 0.959122 302.892 0.932539 302.786 0.879374C302.732 0.852791 302.679 0.852791 302.626 0.852791C302.493 0.826208 302.387 0.799626 302.254 0.773043C302.201 0.773043 302.147 0.74646 302.068 0.74646C301.935 0.719877 301.828 0.693295 301.695 0.693295C301.616 0.693295 301.562 0.666712 301.483 0.666712C301.376 0.640129 301.243 0.640129 301.137 0.613546C301.057 0.613546 300.951 0.586964 300.871 0.586964C300.765 0.586964 300.685 0.560381 300.579 0.560381C300.419 0.560381 300.233 0.560381 300.073 0.560381C300.047 0.560381 300.047 0.560381 300.02 0.560381C299.994 0.560381 299.994 0.560381 299.967 0.560381C299.807 0.560381 299.621 0.560381 299.462 0.560381C299.355 0.560381 299.276 0.586964 299.169 0.586964C299.09 0.586964 298.983 0.586964 298.903 0.613546C298.797 0.613546 298.664 0.640129 298.558 0.666712C298.478 0.666712 298.425 0.693295 298.345 0.693295C298.212 0.719877 298.106 0.719877 297.973 0.74646C297.92 0.74646 297.866 0.773043 297.787 0.773043C297.654 0.799626 297.547 0.826208 297.414 0.852791C297.361 0.879374 297.308 0.879374 297.228 0.905957C297.122 0.932539 296.989 0.959122 296.883 1.01229C296.829 1.03887 296.75 1.03887 296.696 1.06545C296.59 1.09204 296.484 1.1452 296.377 1.17178C296.298 1.19837 296.244 1.22495 296.165 1.25153C296.058 1.27812 295.978 1.33128 295.872 1.35786C295.792 1.38445 295.713 1.41103 295.633 1.46419C295.553 1.49078 295.473 1.54394 295.394 1.57053C295.314 1.59711 295.207 1.65027 295.128 1.70344C295.048 1.73002 294.995 1.78319 294.915 1.80977C294.809 1.86294 294.729 1.9161 294.622 1.96927C294.569 1.99585 294.489 2.04901 294.436 2.0756C294.33 2.12876 294.224 2.18193 294.144 2.26168C294.091 2.28826 294.037 2.34142 293.984 2.36801C293.878 2.42117 293.772 2.50092 293.692 2.55409C293.639 2.58067 293.585 2.63384 293.532 2.66042C293.426 2.74017 293.346 2.79333 293.24 2.87308C293.187 2.92625 293.107 2.97941 293.054 3.00599C292.974 3.05916 292.894 3.13891 292.814 3.19207C292.734 3.27182 292.655 3.32499 292.575 3.40473C292.522 3.4579 292.469 3.51107 292.389 3.56423C292.256 3.69714 292.123 3.83006 291.963 3.96297L219.027 76.8529L207.966 63.721L219.825 51.8651C224.292 47.3992 227.19 41.87 228.227 35.8091C229.211 30.2001 228.546 24.4317 226.339 19.0886C224.132 13.7454 220.516 9.19977 215.863 5.9301C210.837 2.39459 204.828 0.533798 198.526 0.533798H120.804C114.528 0.533798 109.45 5.6111 109.45 11.8846C109.45 18.1582 114.528 23.2355 120.804 23.2355H198.526C202.993 23.2355 204.801 26.4254 205.36 27.8077C205.918 29.19 206.902 32.7255 203.764 35.8623L184.54 55.0816C180.365 59.2551 180.099 65.9008 183.902 70.4198L209.561 100.83C211.795 103.489 215.012 104.871 218.229 104.871C218.256 104.871 218.309 104.871 218.336 104.871C218.362 104.871 218.389 104.871 218.415 104.871C221.314 104.871 224.212 103.755 226.446 101.548L288.719 39.2914V100.857Z"
    fill="#E8E8E8"
  />
<path
    d="M69.4767 0.53334H0.984579H0.666504V6.19835V11.8634V17.555V23.22H0.984579H42.2018C32.1294 33.3266 22.0835 43.4066 12.0112 53.5132C9.44007 56.093 7.24005 59.258 5.67618 62.7687C4.11231 66.2794 3.31713 70.1093 3.1846 73.9125C3.05206 80.1095 4.80148 86.2 8.14126 91.3331C9.81115 93.8864 11.8786 96.2268 14.2642 98.195C16.6763 100.163 19.4064 101.759 22.3221 102.876C25.8474 104.232 29.5848 104.871 33.1896 104.871H123.231H123.549V99.2056V93.5406V87.8756V82.184H123.231H33.2162C32.1559 82.184 31.2547 81.9978 30.4595 81.6787C29.7968 81.4127 29.1607 81.0669 28.6041 80.6148C28.0474 80.1627 27.5173 79.5776 27.0932 78.9126C26.245 77.5828 25.7679 75.9604 25.7944 74.4711C25.8209 74.3647 25.8209 74.2583 25.8209 74.1253C25.8209 74.0721 25.8209 74.0189 25.8209 73.9657L25.8474 73.8062C25.8739 73.6998 25.8739 73.5934 25.8739 73.487C25.9004 73.3806 25.9269 73.2742 25.9534 73.1678C25.98 72.9551 26.086 72.7423 26.1125 72.5295C26.139 72.4231 26.192 72.3168 26.2185 72.2104C26.2715 72.104 26.2715 71.9976 26.351 71.8912C26.7221 71.0933 27.2257 70.322 27.9679 69.5507C44.4548 53.0078 60.9682 36.4384 77.455 19.8954C79.496 17.8475 80.7683 15.0017 80.7683 11.8634C80.7948 5.61323 75.7321 0.53334 69.4767 0.53334Z"
    fill="#E8E8E8"
  />
<path
    d="M71.2437 52.7016C71.2437 81.471 94.6223 104.869 123.367 104.869C152.112 104.869 175.491 81.471 175.491 52.7016C175.464 23.9322 152.086 0.533798 123.367 0.533798C94.6223 0.533798 71.2437 23.9322 71.2437 52.7016Z"
    fill="url(#paint0_radial)"
  />
<path
    d="M71.2437 52.7016C71.2437 81.471 94.6223 104.869 123.367 104.869C152.112 104.869 175.491 81.471 175.491 52.7016C175.464 23.9322 152.086 0.533798 123.367 0.533798C94.6223 0.533798 71.2437 23.9322 71.2437 52.7016Z"
    fill="url(#paint1_radial)"
  />
<path
    d="M71.2437 52.7016C71.2437 81.471 94.6223 104.869 123.367 104.869C152.112 104.869 175.491 81.471 175.491 52.7016C175.464 23.9322 152.086 0.533798 123.367 0.533798C94.6223 0.533798 71.2437 23.9322 71.2437 52.7016Z"
    fill="url(#paint2_radial)"
  />
<defs>
<radialGradient
      id="paint0_radial"
      cx="0"
      cy="0"
      r="1"
      gradientUnits="userSpaceOnUse"
      gradientTransform="translate(138.961 25.9473) scale(78.4885 78.5549)"
    >
<stop offset="0.00520833" stop-color="white" />
<stop offset="0.458333" stop-color="#B7D8C8" />
<stop offset="0.65625" stop-color="#6D9487" />
<stop offset="1" stop-color="#4B4C3C" />
</radialGradient>
<radialGradient
      id="paint1_radial"
      cx="0"
      cy="0"
      r="1"
      gradientUnits="userSpaceOnUse"
      gradientTransform="translate(138.961 25.9473) scale(78.4885 78.5549)"
    >
<stop offset="0.00520833" stop-color="white" />
<stop offset="0.458333" stop-color="#B5B4C6" />
<stop offset="0.65625" stop-color="#9B8F8F" />
<stop offset="1" stop-color="#4B4C3C" />
</radialGradient>
<radialGradient
      id="paint2_radial"
      cx="0"
      cy="0"
      r="1"
      gradientUnits="userSpaceOnUse"
      gradientTransform="translate(138.961 25.9473) scale(78.4885 78.5549)"
    >
<stop offset="0.15625" stop-color="#DCC8D0" />
<stop offset="0.302083" stop-color="#78C8CF" />
<stop offset="0.427083" stop-color="#4D959E" />
<stop offset="0.557292" stop-color="#305EB9" />
<stop offset="0.796875" stop-color="#311F12" />
<stop offset="0.90625" stop-color="#684232" />
<stop offset="1" stop-color="#2D1C13" />
</radialGradient>
</defs>
</svg>
