<svg
  width="297"
  height="180"
  viewBox="0 0 297 180"
  fill="none"
  xmlns="http://www.w3.org/2000/svg"
>
<path
    d="M89.9276 122.375C107.541 122.375 121.959 107.957 122.03 90.2727C122.101 72.5881 107.541 58.1705 89.9276 58.1705C72.1719 58.1705 57.7543 72.5881 57.8253 90.2727C57.8963 107.957 72.1719 122.375 89.9276 122.375ZM32.2571 159.307L62.9389 128.625L51.5753 117.261L20.8935 147.943L32.2571 159.307ZM147.598 159.307L158.962 147.943L128.28 117.261L116.916 128.625L147.598 159.307ZM51.5753 63.2841L62.9389 51.9205L32.2571 21.2386L20.8935 32.6023L51.5753 63.2841ZM128.28 63.2841L158.962 32.6023L147.598 21.2386L116.916 51.9205L128.28 63.2841ZM81.902 179.761H97.9531V136.58H81.902V179.761ZM0.43892 98.2983H43.6207V82.2472H0.43892V98.2983ZM136.234 98.2983H179.416V82.2472H136.234V98.2983ZM81.902 43.9659H97.9531V0.784088H81.902V43.9659ZM272.781 161.8C258.781 161.8 246.381 158.867 235.581 153C224.915 147.133 216.581 139 210.581 128.6C204.581 118.067 201.581 105.933 201.581 92.2C201.581 78.4667 204.648 66.4 210.781 56C216.915 45.4667 225.315 37.2667 235.981 31.4C246.781 25.5333 259.048 22.6 272.781 22.6C279.981 22.6 287.781 23.8 296.181 26.2V40C285.248 40 275.648 42.2 267.381 46.6C259.248 51 252.915 57.1333 248.381 65C243.848 72.7333 241.581 81.8 241.581 92.2C241.581 102.467 243.848 111.533 248.381 119.4C252.915 127.267 259.248 133.4 267.381 137.8C275.648 142.2 285.248 144.4 296.181 144.4V158.2C287.648 160.6 279.848 161.8 272.781 161.8ZM278.781 152.6C268.781 150.6 260.115 146.733 252.781 141C245.448 135.267 239.715 128.2 235.581 119.8C231.581 111.4 229.581 102.2 229.581 92.2C229.581 82.2 231.581 73 235.581 64.6C239.715 56.2 245.448 49.1333 252.781 43.4C260.115 37.6667 268.781 33.8 278.781 31.8C265.581 31.8 254.115 34.5333 244.381 40C234.648 45.4667 227.048 52.8 221.581 62C216.248 71.0667 213.581 81.1333 213.581 92.2C213.581 103.267 216.248 113.4 221.581 122.6C227.048 131.667 234.648 138.933 244.381 144.4C254.115 149.867 265.581 152.6 278.781 152.6Z"
    fill="#FBF6F4"
  />
</svg>
