<svg width="20" height="20" viewBox="0 0 20 20" fill="none" xmlns="http://www.w3.org/2000/svg">
<path d="M18.3333 0.833252H1.66667C1.22464 0.833252 0.800716 1.00885 0.488155 1.32141C0.175595 1.63397 0 2.05789 0 2.49992L0 13.3333C0 13.7753 0.175595 14.1992 0.488155 14.5118C0.800716 14.8243 1.22464 14.9999 1.66667 14.9999H4.16667V19.9999L10.8333 14.9999H18.3333C18.7754 14.9999 19.1993 14.8243 19.5118 14.5118C19.8244 14.1992 20 13.7753 20 13.3333V2.49992C20 2.05789 19.8244 1.63397 19.5118 1.32141C19.1993 1.00885 18.7754 0.833252 18.3333 0.833252Z" fill="#F2F2F2"/>
</svg>
