<svg
  width="20"
  height="20"
  viewBox="0 0 20 20"
  fill="none"
  xmlns="http://www.w3.org/2000/svg"
>
<path
    d="M15.875 14.0373C17 12.5466 17.625 10.8075 17.625 8.81988C17.625 3.97516 13.75 0 8.875 0C4 0 0 3.97516 0 8.81988C0 13.6646 4 17.6398 8.875 17.6398C10.875 17.6398 12.75 17.0186 14.125 15.9006L17.875 19.6273C18.125 19.8758 18.5 20 18.75 20C19 20 19.375 19.8758 19.625 19.6273C20.125 19.1304 20.125 18.3851 19.625 17.8882L15.875 14.0373ZM8.875 15.0311C5.375 15.0311 2.5 12.2981 2.5 8.81988C2.5 5.34161 5.375 2.48447 8.875 2.48447C12.375 2.48447 15.25 5.34161 15.25 8.81988C15.25 12.2981 12.375 15.0311 8.875 15.0311Z"
    fill="#F2F2F2"
  />
</svg>
