<svg width="20" height="18" viewBox="0 0 20 18" fill="none" xmlns="http://www.w3.org/2000/svg">
<path d="M20 2.83341C19.25 3.16675 18.5 3.41675 17.6667 3.50008C18.5 3.00008 19.1667 2.16675 19.5 1.25008C18.6667 1.75008 17.8333 2.08341 16.9167 2.25008C16.1667 1.41675 15.0833 0.916748 13.9167 0.916748C11.6667 0.916748 9.83333 2.75008 9.83333 5.00008C9.83333 5.33342 9.83333 5.66675 9.91667 5.91675C6.41667 5.75008 3.41667 4.08342 1.41667 1.58341C1 2.25008 0.833333 2.91675 0.833333 3.66675C0.833333 5.08342 1.58333 6.33342 2.66667 7.08342C2 7.08342 1.33333 6.91675 0.833333 6.58342C0.833333 6.58342 0.833333 6.58342 0.833333 6.66675C0.833333 8.66675 2.25 10.3334 4.08333 10.6667C3.75 10.7501 3.41667 10.8334 3 10.8334C2.75 10.8334 2.5 10.8334 2.25 10.7501C2.75 12.4167 4.25 13.5834 6.08333 13.5834C4.66667 14.6667 2.91667 15.3334 1 15.3334C0.666667 15.3334 0.333333 15.3334 0 15.2501C1.83333 16.4168 4 17.0834 6.25 17.0834C13.8333 17.0834 17.9167 10.8334 17.9167 5.41675C17.9167 5.25008 17.9167 5.08342 17.9167 4.91675C18.75 4.33342 19.4167 3.58342 20 2.83341Z" fill="#F2F2F2"/>
</svg>
