<svg
  width="79"
  height="27"
  viewBox="0 0 79 27"
  fill="none"
  xmlns="http://www.w3.org/2000/svg"
>
<path
    d="M73.2338 25.506H79.0002V2.88593C79.0002 2.87917 79.0002 2.87917 79.0002 2.87241C79.0002 2.83186 79.0002 2.78455 79.0002 2.744C79.0002 2.71697 78.9935 2.69669 78.9935 2.66966C78.9935 2.64939 78.9935 2.62235 78.9867 2.60208C78.9867 2.57504 78.9799 2.54125 78.9732 2.51422C78.9732 2.49394 78.9664 2.48043 78.9664 2.46015C78.9596 2.42636 78.9597 2.39933 78.9529 2.36554C78.9529 2.35202 78.9461 2.3385 78.9461 2.31823C78.9394 2.28444 78.9326 2.2574 78.9258 2.22361C78.9191 2.21009 78.9191 2.19658 78.9123 2.1763C78.9056 2.14927 78.8988 2.11548 78.8853 2.08844C78.8785 2.07493 78.8785 2.05465 78.8718 2.04114C78.865 2.0141 78.8515 1.98707 78.8447 1.96004C78.838 1.93976 78.8312 1.92624 78.8244 1.90597C78.8177 1.87894 78.8042 1.85866 78.7974 1.83163C78.7906 1.81135 78.7839 1.79108 78.7704 1.7708C78.7636 1.75053 78.7501 1.73025 78.7433 1.70998C78.7366 1.6897 78.723 1.66267 78.7095 1.6424C78.7028 1.62212 78.6892 1.6086 78.6825 1.58833C78.669 1.5613 78.6554 1.54102 78.6419 1.51399C78.6352 1.50047 78.6216 1.4802 78.6149 1.46668C78.6014 1.43965 78.5878 1.41261 78.5743 1.39234C78.5676 1.37882 78.554 1.3653 78.5473 1.35179C78.5338 1.32475 78.5135 1.29772 78.5 1.27745C78.4932 1.26393 78.4797 1.25041 78.4729 1.2369C78.4594 1.20986 78.4391 1.18959 78.4188 1.16255C78.4053 1.14904 78.3918 1.12876 78.385 1.11525C78.3715 1.09497 78.3512 1.0747 78.3377 1.05442C78.3174 1.03415 78.3039 1.01387 78.2836 0.993596C78.2701 0.980079 78.2566 0.966563 78.2431 0.946288C78.1822 0.878704 78.1079 0.811121 78.0403 0.743538C78.0267 0.730021 78.0132 0.716505 77.9929 0.702988C77.9727 0.682713 77.9524 0.669196 77.9321 0.648921C77.9118 0.635405 77.8915 0.61513 77.8713 0.601613C77.8577 0.588096 77.8375 0.57458 77.8239 0.567821C77.7969 0.547546 77.7766 0.53403 77.7496 0.513755C77.7361 0.506996 77.7225 0.49348 77.709 0.486721C77.682 0.473205 77.6617 0.45293 77.6347 0.439413C77.6211 0.432655 77.6076 0.419138 77.5941 0.41238C77.5671 0.398863 77.5468 0.385347 77.5197 0.37183C77.5062 0.365072 77.4859 0.351555 77.4724 0.344797C77.4454 0.33128 77.4251 0.317763 77.3981 0.304247C77.3778 0.297488 77.3642 0.283972 77.344 0.277213C77.3237 0.263697 77.2966 0.256938 77.2764 0.25018C77.2561 0.243422 77.2358 0.229905 77.2155 0.223147C77.1952 0.216388 77.175 0.20963 77.1547 0.202872C77.1276 0.196113 77.1074 0.182597 77.0803 0.175839C77.06 0.16908 77.0465 0.162322 77.0262 0.155564C76.9992 0.148805 76.9722 0.135289 76.9451 0.12853C76.9316 0.121772 76.9113 0.121772 76.8978 0.115014C76.8708 0.108255 76.837 0.101497 76.8099 0.0879803C76.7964 0.081222 76.7829 0.081222 76.7694 0.081222C76.7356 0.0744637 76.7085 0.0677053 76.6747 0.060947C76.6612 0.060947 76.6477 0.0541887 76.6274 0.0541887C76.5936 0.0474303 76.5665 0.040672 76.5327 0.040672C76.5125 0.040672 76.4989 0.0339137 76.4787 0.0339137C76.4516 0.0271554 76.4178 0.0271554 76.3908 0.020397C76.3705 0.020397 76.3435 0.0136387 76.3232 0.0136387C76.2961 0.0136387 76.2759 0.0068804 76.2488 0.0068804C76.2083 0.0068804 76.1609 0.0068804 76.1204 0.0068804C76.1136 0.0068804 76.1136 0.0068804 76.1069 0.0068804C76.1001 0.0068804 76.1001 0.0068804 76.0933 0.0068804C76.0528 0.0068804 76.0055 0.0068804 75.9649 0.0068804C75.9379 0.0068804 75.9176 0.0136387 75.8905 0.0136387C75.8703 0.0136387 75.8432 0.0136387 75.8229 0.020397C75.7959 0.020397 75.7621 0.0271554 75.735 0.0339137C75.7148 0.0339137 75.7012 0.040672 75.681 0.040672C75.6472 0.0474303 75.6201 0.0474303 75.5863 0.0541887C75.5728 0.0541887 75.5593 0.060947 75.539 0.060947C75.5052 0.0677053 75.4782 0.0744637 75.4444 0.081222C75.4308 0.0879803 75.4173 0.0879803 75.397 0.0947386C75.37 0.101497 75.3362 0.108255 75.3092 0.121772C75.2956 0.12853 75.2754 0.12853 75.2618 0.135289C75.2348 0.142047 75.2078 0.155564 75.1807 0.162322C75.1604 0.16908 75.1469 0.175839 75.1266 0.182597C75.0996 0.189355 75.0793 0.202872 75.0523 0.20963C75.032 0.216388 75.0117 0.223147 74.9914 0.236663C74.9711 0.243422 74.9509 0.256938 74.9306 0.263697C74.9103 0.270455 74.8833 0.283972 74.863 0.297488C74.8427 0.304247 74.8292 0.317763 74.8089 0.324522C74.7819 0.338038 74.7616 0.351555 74.7345 0.365072C74.721 0.37183 74.7007 0.385347 74.6872 0.392105C74.6602 0.405622 74.6331 0.419138 74.6129 0.439413C74.5993 0.446172 74.5858 0.459688 74.5723 0.466447C74.5453 0.479963 74.5182 0.500238 74.4979 0.513755C74.4844 0.520513 74.4709 0.53403 74.4574 0.540788C74.4303 0.561063 74.41 0.57458 74.383 0.594855C74.3695 0.608371 74.3492 0.621888 74.3357 0.628646C74.3154 0.642163 74.2951 0.662438 74.2748 0.675955C74.2546 0.69623 74.2343 0.709746 74.214 0.730021C74.2005 0.743538 74.187 0.757054 74.1667 0.770571C74.1329 0.804363 74.0991 0.838154 74.0585 0.871946L55.5154 19.4033L52.7032 16.0647L55.7182 13.0504C56.8539 11.915 57.5908 10.5093 57.8544 8.96842C58.1045 7.54241 57.9355 6.07586 57.3744 4.71743C56.8133 3.35901 55.894 2.20334 54.7109 1.37206C53.4333 0.473205 51.9055 0.00012207 50.3033 0.00012207H30.5433C28.9479 0.00012207 27.6567 1.29096 27.6567 2.88593C27.6567 4.48089 28.9479 5.77173 30.5433 5.77173H50.3033C51.439 5.77173 51.8987 6.58273 52.0407 6.93416C52.1826 7.2856 52.4328 8.18445 51.6351 8.98194L46.7475 13.8682C45.6861 14.9293 45.6185 16.6188 46.5852 17.7678L53.1088 25.4993C53.6766 26.1751 54.4946 26.5265 55.3126 26.5265C55.3193 26.5265 55.3329 26.5265 55.3396 26.5265C55.3464 26.5265 55.3531 26.5265 55.3599 26.5265C56.0968 26.5265 56.8336 26.2427 57.4015 25.6818L73.2338 9.85376V25.506Z"
    fill="#E8E8E8"
  />
<path
    d="M17.4941 1.52588e-05H0.0808665H0V1.44027V2.88053V4.32755V5.76781H0.0808665H10.5598C7.99904 8.33728 5.44501 10.9 2.88424 13.4695C2.23057 14.1254 1.67124 14.93 1.27365 15.8226C0.876053 16.7151 0.673887 17.6888 0.640193 18.6557C0.606498 20.2312 1.05126 21.7797 1.90036 23.0847C2.32491 23.7338 2.85054 24.3289 3.45704 24.8292C4.07028 25.3296 4.76438 25.7353 5.50566 26.0193C6.40193 26.3642 7.35211 26.5264 8.26859 26.5264H31.1605H31.2414V25.0862V23.6459V22.2057V20.7587H31.1605H8.27533C8.00578 20.7587 7.77666 20.7113 7.57449 20.6302C7.40602 20.5626 7.24429 20.4747 7.10277 20.3597C6.96125 20.2448 6.82648 20.096 6.71865 19.927C6.50301 19.5889 6.38171 19.1764 6.38845 18.7977C6.39519 18.7707 6.39519 18.7436 6.39519 18.7098C6.39519 18.6963 6.39519 18.6828 6.39519 18.6693L6.40193 18.6287C6.40867 18.6016 6.40867 18.5746 6.40867 18.5476C6.41541 18.5205 6.42214 18.4935 6.42888 18.4664C6.43562 18.4123 6.46258 18.3582 6.46932 18.3041C6.47606 18.2771 6.48953 18.25 6.49627 18.223C6.50975 18.1959 6.50975 18.1689 6.52997 18.1418C6.62431 17.939 6.75235 17.7429 6.94104 17.5468C11.1326 13.341 15.3309 9.12841 19.5225 4.92259C20.0414 4.40193 20.3649 3.67842 20.3649 2.88053C20.3716 1.29151 19.0845 1.52588e-05 17.4941 1.52588e-05Z"
    fill="#E8E8E8"
  />
<path
    d="M17.9434 13.2631C17.9434 20.5774 23.8871 26.5261 31.1951 26.5261C38.5032 26.5261 44.4469 20.5774 44.4469 13.2631C44.4402 5.94887 38.4964 0.00012207 31.1951 0.00012207C23.8871 0.00012207 17.9434 5.94887 17.9434 13.2631Z"
    fill="url(#paint0_radial)"
  />
<path
    d="M17.9434 13.2631C17.9434 20.5774 23.8871 26.5261 31.1951 26.5261C38.5032 26.5261 44.4469 20.5774 44.4469 13.2631C44.4402 5.94887 38.4964 0.00012207 31.1951 0.00012207C23.8871 0.00012207 17.9434 5.94887 17.9434 13.2631Z"
    fill="url(#paint1_radial)"
  />
<path
    d="M17.9434 13.2631C17.9434 20.5774 23.8871 26.5261 31.1951 26.5261C38.5032 26.5261 44.4469 20.5774 44.4469 13.2631C44.4402 5.94887 38.4964 0.00012207 31.1951 0.00012207C23.8871 0.00012207 17.9434 5.94887 17.9434 13.2631Z"
    fill="url(#paint2_radial)"
  />
<defs>
<radialGradient
      id="paint0_radial"
      cx="0"
      cy="0"
      r="1"
      gradientUnits="userSpaceOnUse"
      gradientTransform="translate(35.1597 6.46118) scale(19.9547 19.9716)"
    >
<stop offset="0.00520833" stop-color="white" />
<stop offset="0.458333" stop-color="#B7D8C8" />
<stop offset="0.65625" stop-color="#6D9487" />
<stop offset="1" stop-color="#4B4C3C" />
</radialGradient>
<radialGradient
      id="paint1_radial"
      cx="0"
      cy="0"
      r="1"
      gradientUnits="userSpaceOnUse"
      gradientTransform="translate(35.1597 6.46118) scale(19.9547 19.9716)"
    >
<stop offset="0.00520833" stop-color="white" />
<stop offset="0.458333" stop-color="#B5B4C6" />
<stop offset="0.65625" stop-color="#9B8F8F" />
<stop offset="1" stop-color="#4B4C3C" />
</radialGradient>
<radialGradient
      id="paint2_radial"
      cx="0"
      cy="0"
      r="1"
      gradientUnits="userSpaceOnUse"
      gradientTransform="translate(35.1597 6.46118) scale(19.9547 19.9716)"
    >
<stop offset="0.15625" stop-color="#DCC8D0" />
<stop offset="0.302083" stop-color="#78C8CF" />
<stop offset="0.427083" stop-color="#4D959E" />
<stop offset="0.557292" stop-color="#305EB9" />
<stop offset="0.796875" stop-color="#311F12" />
<stop offset="0.90625" stop-color="#684232" />
<stop offset="1" stop-color="#2D1C13" />
</radialGradient>
</defs>
</svg>
